<mxfile host="app.diagrams.net" agent="Mozilla/5.0 (Windows NT 10.0; Win64; x64) AppleWebKit/537.36 (KHTML, like Gecko) Chrome/135.0.0.0 Safari/537.36" version="26.2.13">
  <diagram name="第 1 页" id="ckp2Xpnx7AianlPeY4VO">
    <mxGraphModel dx="1428" dy="743" grid="1" gridSize="10" guides="1" tooltips="1" connect="1" arrows="1" fold="1" page="1" pageScale="1" pageWidth="827" pageHeight="1169" math="0" shadow="0">
      <root>
        <mxCell id="0" />
        <mxCell id="1" parent="0" />
        <mxCell id="DndpLsclEAxI7whHIhpK-1" value="milvus" style="rounded=0;whiteSpace=wrap;html=1;sketch=1;curveFitting=1;jiggle=2;" vertex="1" parent="1">
          <mxGeometry x="140" y="150" width="120" height="60" as="geometry" />
        </mxCell>
        <mxCell id="DndpLsclEAxI7whHIhpK-2" value="&lt;font style=&quot;font-size: 16px;&quot; face=&quot;Lucida Console&quot;&gt;1.&amp;nbsp;轻量级&lt;/font&gt;&lt;div&gt;&lt;font style=&quot;font-size: 16px;&quot; face=&quot;Lucida Console&quot;&gt;2. 本地化&lt;/font&gt;&lt;/div&gt;&lt;div&gt;&lt;font style=&quot;font-size: 16px;&quot; face=&quot;Lucida Console&quot;&gt;3. 集群化&lt;/font&gt;&lt;/div&gt;" style="rounded=0;whiteSpace=wrap;html=1;align=left;sketch=1;curveFitting=1;jiggle=2;" vertex="1" parent="1">
          <mxGeometry x="480" y="90" width="120" height="80" as="geometry" />
        </mxCell>
        <mxCell id="DndpLsclEAxI7whHIhpK-5" value="" style="endArrow=classic;html=1;rounded=0;entryX=0;entryY=0.5;entryDx=0;entryDy=0;exitX=1;exitY=0.5;exitDx=0;exitDy=0;sketch=1;curveFitting=1;jiggle=2;" edge="1" parent="1" source="DndpLsclEAxI7whHIhpK-1" target="DndpLsclEAxI7whHIhpK-2">
          <mxGeometry width="50" height="50" relative="1" as="geometry">
            <mxPoint x="381" y="550" as="sourcePoint" />
            <mxPoint x="431" y="500" as="targetPoint" />
          </mxGeometry>
        </mxCell>
        <mxCell id="DndpLsclEAxI7whHIhpK-6" value="灵活部署" style="edgeLabel;html=1;align=center;verticalAlign=middle;resizable=0;points=[];" vertex="1" connectable="0" parent="DndpLsclEAxI7whHIhpK-5">
          <mxGeometry x="-0.1645" y="-2" relative="1" as="geometry">
            <mxPoint as="offset" />
          </mxGeometry>
        </mxCell>
        <mxCell id="DndpLsclEAxI7whHIhpK-7" value="pinecone" style="rounded=0;whiteSpace=wrap;html=1;sketch=1;curveFitting=1;jiggle=2;" vertex="1" parent="1">
          <mxGeometry x="120" y="330" width="120" height="60" as="geometry" />
        </mxCell>
        <mxCell id="DndpLsclEAxI7whHIhpK-8" value="mongo" style="rounded=0;whiteSpace=wrap;html=1;sketch=1;curveFitting=1;jiggle=2;" vertex="1" parent="1">
          <mxGeometry x="120" y="440" width="120" height="60" as="geometry" />
        </mxCell>
        <mxCell id="DndpLsclEAxI7whHIhpK-9" value="无法本地部署" style="rounded=0;whiteSpace=wrap;html=1;sketch=1;curveFitting=1;jiggle=2;" vertex="1" parent="1">
          <mxGeometry x="294" y="360" width="120" height="60" as="geometry" />
        </mxCell>
        <mxCell id="DndpLsclEAxI7whHIhpK-10" value="本地不支持向量数据库&lt;div&gt;&amp;nbsp;mongo altas&lt;/div&gt;" style="rounded=0;whiteSpace=wrap;html=1;sketch=1;curveFitting=1;jiggle=2;" vertex="1" parent="1">
          <mxGeometry x="290" y="470" width="150" height="60" as="geometry" />
        </mxCell>
        <mxCell id="DndpLsclEAxI7whHIhpK-11" value="接口不丰富" style="rounded=0;whiteSpace=wrap;html=1;sketch=1;curveFitting=1;jiggle=2;" vertex="1" parent="1">
          <mxGeometry x="440" y="390" width="120" height="60" as="geometry" />
        </mxCell>
      </root>
    </mxGraphModel>
  </diagram>
</mxfile>
